<?xml version="1.0" encoding="UTF-8"?>
<svg width="1024" height="1024" viewBox="0 0 1024 1024" xmlns="http://www.w3.org/2000/svg">
  <!-- Background -->
  <rect width="1024" height="1024" fill="#ffffff" rx="200"/>
  
  <!-- Meerkat silhouette -->
  <g transform="translate(512, 512)">
    <!-- Body -->
    <ellipse cx="0" cy="100" rx="200" ry="300" fill="#ff6600"/>
    
    <!-- Head -->
    <circle cx="0" cy="-150" r="180" fill="#ff6600"/>
    
    <!-- Ears -->
    <ellipse cx="-120" cy="-200" rx="60" ry="100" fill="#ff6600" transform="rotate(-20 -120 -200)"/>
    <ellipse cx="120" cy="-200" rx="60" ry="100" fill="#ff6600" transform="rotate(20 120 -200)"/>
    
    <!-- Inner ears -->
    <ellipse cx="-120" cy="-200" rx="30" ry="60" fill="#1a1a1a" transform="rotate(-20 -120 -200)"/>
    <ellipse cx="120" cy="-200" rx="30" ry="60" fill="#1a1a1a" transform="rotate(20 120 -200)"/>
    
    <!-- Eyes -->
    <circle cx="-60" cy="-150" r="40" fill="#1a1a1a"/>
    <circle cx="60" cy="-150" r="40" fill="#1a1a1a"/>
    <circle cx="-60" cy="-160" r="15" fill="#ffffff"/>
    <circle cx="60" cy="-160" r="15" fill="#ffffff"/>
    
    <!-- Nose -->
    <ellipse cx="0" cy="-80" rx="25" ry="20" fill="#1a1a1a"/>
    
    <!-- Mouth -->
    <path d="M -40,-60 Q 0,-40 40,-60" stroke="#1a1a1a" stroke-width="8" fill="none" stroke-linecap="round"/>
    
    <!-- Arms -->
    <ellipse cx="-150" cy="50" rx="50" ry="120" fill="#ff6600" transform="rotate(-30 -150 50)"/>
    <ellipse cx="150" cy="50" rx="50" ry="120" fill="#ff6600" transform="rotate(30 150 50)"/>
    
    <!-- Belly -->
    <ellipse cx="0" cy="100" rx="120" ry="180" fill="#ffa347"/>
  </g>
</svg>